<?xml version="1.0" encoding="UTF-8"?>
<svg id="_ò_x2021__xF8FF__x5F_1" data-name="ò_x2021__xF8FF__x5F_1" xmlns="http://www.w3.org/2000/svg" version="1.1" viewBox="0 0 2069.2 4952">
  <!-- Generator: Adobe Illustrator 29.3.1, SVG Export Plug-In . SVG Version: 2.1.0 Build 151)  -->
  <path d="M213.9,2812.4c0,1.2,0,2.4.1,3.6.7.5,1.3,1,2,1.5l-2.1-5.1ZM474.2,3453.4c0,.7-.2,1.4-.3,2.2.7.8,1.4,1.5,2.1,2.3l-1.8-4.5Z"/>
  <path d="M1352.5,2370.2c-6.6,0-13.1,0-19.7.3l-22.4-472.5s453.4-166.9,593.5-874.2c92.1-465-50.2-886.5-232.2-922.2-182.1-35.6-420.5,303.7-511.6,769-50.2,256.4-45.1,497.6,0,668.4-540.1,347.7-756.9,662-763.7,672-.1.2-.2.2-.2.2-114.9,161.1-182.7,359.6-182.7,574.4s.1,17.9.4,26.8l2.1,5.1c-.6-.5-1.3-1-2-1.5,7.4,247.5,104.8,471.8,259.9,639.5,0-.7.2-1.4.3-2.2l1.8,4.5h0c173.1,186.1,417.4,302,688,302s52.3-1.1,78-3.2c43.1-3.6,80.8,29.1,83.9,72.2,9.6,131.3,25.8,365.3,37.4,589.6,8.9,171.3-118,317.8-288.9,333.5-1.6.1-3.2.3-4.8.4-.7,0-1.3.1-2,.2-.8,0-1.6.1-2.4.2,86.5-69.2,133.4-182.5,112.3-298.9-27.2-150.1-158.6-255.7-306.1-255.7s-37,1.6-55.7,5c-168.9,30.6-281.3,192.9-250.6,361.8,8.1,44.6,25.4,86,50.5,122.1l-.9.8-1,.9s122.1,189.6,469.2,155.7c106.3-10.4,203.4-59.6,273.4-140.3,69.9-80.7,105.4-183.9,99.8-290.6-12.8-245.9-31-503.2-40-625.4-2.6-35.5,19.1-68,52.7-79.7,27.4-9.5,54.1-20.2,80.3-32.1,104.3-47.4,198.7-113.5,279.2-194.1,98.5-118,158.3-272.9,158.3-442.6,0-369.8-284-669.6-634.3-669.6ZM1349.2,819.4c98.9-207.2,254.2-341.7,358.9-295,104.7,46.7,113.3,254.4,20.2,464.2-150.2,338.1-457.4,454.8-457.4,454.8,0,0-20.9-416.2,78.3-624ZM1269.4,3670.5c-434.7-24.8-682.8-198.1-793.8-411.5h0c-1.2-2.4-2.4-4.7-3.6-7h0c-31.6-62.7-51.5-128.7-60.9-195.3h0c-.4-3-.8-5.9-1.2-8.9h0c-19-147.9,13.2-298.3,83.1-421.6,218-384.9,699.9-642.7,699.9-642.7l21.6,376.9c1.1,19.6-10.2,37.9-28.3,45.5-131.4,55.2-633.4,306.6-360,832.7,0,0-38.4-467.2,390.3-534.1,18.1-2.8,34.7,10.5,36,28.7l61.7,892.2c1.8,25.4-19.2,46.6-44.6,45.1ZM1455.6,3639.4c-23,7.8-47.1-8.5-48.4-32.7l-49.1-866.4c-1.2-20.3,17.1-36.2,37.1-32.3,107.1,21.4,396.8,112.4,396.5,471.7-.2,311.7-234.7,425.2-336.1,459.7Z"/>
</svg>